:SAMPLES-PER-SECOND 30
:FRAME-RANGE 1-2009
:FULLY-SPECIFIED
:DEGREES
1444
root  18.9865 37.2567 -23.1824 -177.193 51.4898 -173.723
RightUpLeg  -17.3947 0.762986 17.3088
RightLeg  33.5742 -17.8162 -12.581
RightFoot  -16.5395 -0.442659 -7.28026
RightToes  4.71047e-010 1.2921e-014 -6.02303e-014
Spine  6.82334 -6.0624 1.83822
Spine1  1.28825 -7.39231 11.5847
HEad  -5.90836 -59.3595 9.00857
LeftShoulder1  2.11607 -2.66281 -28.241
LeftArm  3.74126 -15.8515 -41.1528
LeftForeArm  11.9606 3.77124 -18.3556
LeftHand  0.218412 0.437685 -5.22826
RightShoulder  4.0914 3.66835 50.0173
RightArm  2.26339 -1.04993 11.9473
RightForeArm  23.713 0.185829 15.6522
RightHand  0.349372 1.07277 6.18614
LeftUpLeg  -17.5565 21.7403 8.68024
LeftLeg  73.3865 -2.70225 -9.27089
LeftFoot  7.09914 2.09763 -13.1432
LeftToes  2.15783e-011 -7.56106e-012 -8.20802e-012
1445
root  19.3303 37.7302 -24.352 -178.365 56.3493 -175.46
RightUpLeg  -14.2031 3.8651 14.8354
RightLeg  31.4831 -16.5138 -10.8486
RightFoot  -16.703 -0.389482 -5.9027
RightToes  4.71047e-010 1.2921e-014 -6.02303e-014
Spine  6.65352 -5.22565 2.65422
Spine1  0.625737 -6.05017 9.75753
HEad  -4.44662 -58.217 7.6109
LeftShoulder1  1.96387 -2.15102 -28.6605
LeftArm  0.346983 -8.85779 -36.3567
LeftForeArm  11.3355 3.69418 -18.0575
LeftHand  0.181552 0.819004 -4.78166
RightShoulder  4.78661 4.86221 50.1489
RightArm  13.9664 -0.38736 14.4732
RightForeArm  14.6591 8.60027 14.2745
RightHand  0.313316 0.925823 5.68329
LeftUpLeg  -19.7006 19.2626 9.07667
LeftLeg  71.1958 -0.489089 -0.741488
LeftFoot  5.20194 1.27697 -8.98884
LeftToes  2.15783e-011 -7.56106e-012 -8.20802e-012
1446
root  19.7098 38.2332 -25.5089 -179.649 61.4544 -177.561
RightUpLeg  -11.199 5.03077 12.2239
RightLeg  28.2441 -12.9798 -8.03268
RightFoot  -16.5959 -0.343574 -5.04034
RightToes  4.71047e-010 1.2921e-014 -6.02303e-014
Spine  6.63397 -4.3849 3.49407
Spine1  -0.612211 -4.79779 7.74345
HEad  -3.71056 -56.8733 6.53412
LeftShoulder1  1.83321 -1.72957 -28.9629
LeftArm  -2.60041 -1.14158 -32.0805
LeftForeArm  11.3212 3.10701 -17.6836
LeftHand  0.156863 1.29005 -4.71052
RightShoulder  5.27588 5.71636 50.1466
RightArm  30.6856 -0.105829 16.972
RightForeArm  2.2844 18.2922 8.43701
RightHand  0.320272 0.947095 5.78939
LeftUpLeg  -21.0469 17.7222 9.46159
LeftLeg  66.4328 1.99595 5.7181
LeftFoot  2.23905 0.374908 -3.26293
LeftToes  2.15783e-011 -7.56106e-012 -8.20802e-012
1447
root  20.1395 38.7052 -26.6155 178.913 66.6689 -179.87
RightUpLeg  -8.50371 5.10368 9.88393
RightLeg  24.6882 -8.01078 -5.5512
RightFoot  -16.1076 -0.292808 -4.41823
RightToes  4.71047e-010 1.2921e-014 -6.02303e-014
Spine  6.31382 -3.50427 3.95417
Spine1  -1.3128 -3.72099 6.09331
HEad  -3.9947 -55.2315 6.31904
LeftShoulder1  1.71439 -1.38359 -29.0086
LeftArm  -5.31054 6.56731 -28.7359
LeftForeArm  11.021 2.88506 -17.3104
LeftHand  0.153801 1.4975 -4.91019
RightShoulder  5.627 6.40147 49.783
RightArm  33.1271 0.129848 18.6868
RightForeArm  4.01004 25.65 5.29357
RightHand  0.347066 1.16128 6.05219
LeftUpLeg  -21.0418 16.9246 10.3827
LeftLeg  58.8361 4.33982 8.23499
LeftFoot  -0.0768922 0.275434 -2.78882
LeftToes  2.15783e-011 -7.56106e-012 -8.20802e-012
1448
root  20.5932 39.0532 -27.6366 177.452 71.4764 177.861
RightUpLeg  -6.48773 5.55023 8.09897
RightLeg  22 -3.64311 -4.39037
RightFoot  -15.679 -0.25628 -3.96791
RightToes  4.71047e-010 1.2921e-014 -6.02303e-014
Spine  5.89838 -2.92949 4.05939
Spine1  -1.50919 -3.09649 4.83664
HEad  -5.0578 -53.4222 6.98327
LeftShoulder1  1.58935 -1.04438 -28.8689
LeftArm  -6.04294 13.8955 -26.2073
LeftForeArm  9.44347 2.65509 -17.1934
LeftHand  0.14997 1.86493 -5.37687
RightShoulder  6.01603 7.16739 49.4019
RightArm  29.0421 0.485695 19.8621
RightForeArm  11.338 32.7722 6.60847
RightHand  0.375746 1.12136 6.60493
LeftUpLeg  -19.7646 16.4857 11.649
LeftLeg  48.4549 4.81197 6.20853
LeftFoot  -0.898719 0.321341 -3.45767
LeftToes  2.15783e-011 -7.56106e-012 -8.20802e-012
1449
root  21.069 39.3301 -28.6096 174.969 75.6952 174.891
RightUpLeg  -4.51658 6.79981 6.46761
RightLeg  19.6686 -0.625461 -3.97356
RightFoot  -15.3917 -0.220049 -3.2803
RightToes  4.71047e-010 1.2921e-014 -6.02303e-014
Spine  5.57929 -2.54023 3.54944
Spine1  -1.18135 -2.76327 3.91555
HEad  -6.27156 -51.5461 7.68325
LeftShoulder1  1.52127 -0.871195 -28.6902
LeftArm  -5.12444 20.2762 -24.7995
LeftForeArm  7.55564 2.87423 -17.3659
LeftHand  0.150922 2.15291 -5.96416
RightShoulder  6.67804 8.24249 49.8113
RightArm  26.8295 0.703683 19.2681
RightForeArm  15.5895 40.0273 8.41537
RightHand  0.377958 0.799512 7.02682
LeftUpLeg  -16.9579 14.9997 12.7379
LeftLeg  35.6604 2.93349 2.61051
LeftFoot  -2.1399 0.420897 -5.0698
LeftToes  2.15783e-011 -7.56106e-012 -8.20802e-012
1450
root  21.5207 39.4746 -29.5576 172.162 79.4785 171.729
RightUpLeg  -3.18345 10.3992 5.21632
RightLeg  18.5539 -0.263019 -4.0861
RightFoot  -15.5167 -0.187296 -2.26008
RightToes  4.71047e-010 1.2921e-014 -6.02303e-014
Spine  5.7384 -2.35161 2.93381
Spine1  -1.1643 -2.6318 3.28132
HEad  -7.45505 -49.9071 8.41394
LeftShoulder1  1.48631 -0.753877 -28.8286
LeftArm  -3.34297 25.5382 -23.9754
LeftForeArm  6.42046 3.61229 -17.6574
LeftHand  0.163098 2.28705 -6.72473
RightShoulder  6.95694 8.76264 49.6893
RightArm  25.6122 0.925241 19.567
RightForeArm  18.8676 45.6863 10.1481
RightHand  0.376031 0.565937 7.29303
LeftUpLeg  -13.4014 11.2936 13.8193
LeftLeg  22.5826 -1.11561 -0.187012
LeftFoot  -2.94604 0.549794 -7.24483
LeftToes  2.15783e-011 -7.56106e-012 -8.20802e-012
1451
root  21.9435 39.4653 -30.5171 167.73 82.8254 167.103
RightUpLeg  -2.67304 17.9186 3.98964
RightLeg  19.3406 -4.01618 -4.12119
RightFoot  -16.4306 -0.142017 -0.694911
RightToes  4.71047e-010 1.2921e-014 -6.02303e-014
Spine  5.79452 -2.24904 2.19646
Spine1  -0.638111 -2.58349 2.80557
HEad  -8.28883 -48.4464 9.05661
LeftShoulder1  1.48166 -0.738295 -28.8475
LeftArm  -2.02399 29.3391 -24.45
LeftForeArm  5.2558 4.57864 -17.9121
LeftHand  0.167806 2.48659 -7.44198
RightShoulder  7.1689 9.10788 49.7992
RightArm  24.7693 1.21559 19.391
RightForeArm  20.8524 49.8288 11.7157
RightHand  0.373732 0.374608 7.5129
LeftUpLeg  -10.4248 6.5994 14.4094
LeftLeg  12.8553 -3.9559 -0.490619
LeftFoot  -3.71208 0.665447 -9.63104
LeftToes  2.15783e-011 -7.56106e-012 -8.20802e-012
1452
root  22.3754 39.3129 -31.5093 157.858 85.5216 157.181
RightUpLeg  -2.86261 25.7799 2.47073
RightLeg  21.6762 -8.56434 -3.96956
RightFoot  -18.1811 -0.055885 1.124
RightToes  4.71047e-010 1.2921e-014 -6.02303e-014
Spine  5.94944 -2.29753 0.914798
Spine1  -0.0635311 -2.76707 2.79902
HEad  -8.46709 -46.9638 9.45059
LeftShoulder1  1.49971 -0.76234 -29.0788
LeftArm  -0.718704 31.6899 -25.7195
LeftForeArm  4.74747 5.21528 -18.1327
LeftHand  0.179812 2.60462 -8.31006
RightShoulder  7.27522 9.20215 50.1595
RightArm  24.0701 1.50892 18.9446
RightForeArm  21.7913 51.7847 12.5639
RightHand  0.361297 0.281711 7.39322
LeftUpLeg  -8.9579 8.00341 13.349
LeftLeg  8.58251 -6.87007 -0.0811065
LeftFoot  -4.33066 0.719447 -11.2944
LeftToes  2.15783e-011 -7.56106e-012 -8.20802e-012
1453
root  22.7711 39.0836 -32.473 125.437 87.2226 124.589
RightUpLeg  -3.86365 27.6069 0.36156
RightLeg  24.5566 -7.41036 -3.90399
RightFoot  -20.2213 0.0839836 2.84529
RightToes  4.71047e-010 1.2921e-014 -6.02303e-014
Spine  6.23423 -2.26597 -1.43708
Spine1  0.387039 -2.95394 2.82551
HEad  -8.0418 -45.6588 9.63381
LeftShoulder1  1.54108 -0.834996 -29.4513
LeftArm  3.34366 32.3011 -27.3999
LeftForeArm  3.12579 4.0392 -18.6837
LeftHand  0.209281 2.37873 -8.77477
RightShoulder  7.14243 8.90704 50.4136
RightArm  23.1963 1.70782 18.7284
RightForeArm  21.7638 51.4133 12.3841
RightHand  0.342998 0.320506 6.96564
LeftUpLeg  -8.9294 10.1781 12.1111
LeftLeg  9.79348 -7.6677 -1.33574
LeftFoot  -1.40952 1.23282 -14.0353
LeftToes  2.15783e-011 -7.56106e-012 -8.20802e-012
1454
root  23.0919 38.8063 -33.3576 77.5679 86.5696 76.8684
RightUpLeg  -6.0767 27.5559 -2.60435
RightLeg  29.4548 -4.63152 -3.05632
RightFoot  -21.7122 0.307023 5.00315
RightToes  4.71047e-010 1.2921e-014 -6.02303e-014
Spine  7.51763 -2.05281 -5.07093
Spine1  0.316924 -3.20837 3.45179
HEad  -8.31253 -44.4486 10.4265
LeftShoulder1  1.54945 -0.768407 -30.2116
LeftArm  4.02451 30.6237 -28.8303
LeftForeArm  4.24022 3.71012 -18.7382
LeftHand  0.240732 2.22093 -9.46331
RightShoulder  6.99231 8.41201 51.3898
RightArm  22.4245 2.15886 18.0589
RightForeArm  20.3512 48.8927 11.3405
RightHand  0.294789 0.32957 5.97317
LeftUpLeg  -10.291 13.1728 10.4126
LeftLeg  15.786 -7.95912 -2.67762
LeftFoot  -4.92846 0.857376 -14.7125
LeftToes  2.15783e-011 -7.56106e-012 -8.20802e-012
